<svg width="466" height="609" viewBox="0 0 466 609" fill="none" xmlns="http://www.w3.org/2000/svg">
<path d="M-104.716 582.455C-103.986 582.455 -103.26 582.519 -102.539 582.642C-101.821 582.765 -101.115 582.951 -100.43 583.197C-99.7396 583.439 -99.0815 583.744 -98.4431 584.101C-97.8087 584.458 -97.2061 584.87 -96.6431 585.33C-96.0761 585.794 -95.5527 586.297 -95.073 586.852C-94.5972 587.403 -94.169 587.99 -93.7884 588.613C-93.4117 589.239 -93.0906 589.893 -92.825 590.571C-92.5593 591.253 -92.3531 591.951 -92.2064 592.665H7.59265C8.80194 592.665 10.0112 592.633 11.2205 592.574C12.4337 592.514 13.639 592.423 14.8444 592.304C16.0497 592.185 17.251 592.034 18.4484 591.856C19.6458 591.678 20.8392 591.471 22.0287 591.233C23.2141 590.996 24.3957 590.73 25.5732 590.437C26.7468 590.143 27.9125 589.818 29.0702 589.465C30.2319 589.112 31.3817 588.732 32.5196 588.323C33.6615 587.915 34.7915 587.479 35.9096 587.015C37.0276 586.551 38.1339 586.063 39.2281 585.544C40.3224 585.025 41.4049 584.481 42.4714 583.91C43.5419 583.339 44.5966 582.741 45.6353 582.118C46.6702 581.496 47.6931 580.846 48.7002 580.176C49.7072 579.502 50.6985 578.804 51.6698 578.082C52.6452 577.36 53.5967 576.615 54.5364 575.846C55.4721 575.081 56.388 574.288 57.2841 573.475C58.1841 572.662 59.0603 571.826 59.9167 570.969C60.7731 570.113 61.6057 569.237 62.4185 568.34C63.2353 567.44 64.0243 566.525 64.7935 565.589C65.5626 564.653 66.308 563.698 67.0296 562.726C67.7512 561.755 68.4451 560.764 69.1191 559.757C69.7931 558.75 70.4394 557.727 71.0659 556.688C71.6883 555.649 72.2831 554.594 72.854 553.528C73.4249 552.461 73.9721 551.379 74.4875 550.285C75.0069 549.19 75.4985 548.084 75.9624 546.962C76.4263 545.844 76.8625 544.714 77.2708 543.576C77.6792 542.434 78.0598 541.284 78.4127 540.127C78.7656 538.969 79.0867 537.799 79.3801 536.626C79.6775 535.452 79.9431 534.271 80.181 533.081C80.4149 531.896 80.6251 530.702 80.8035 529.505C80.9819 528.307 81.1286 527.106 81.2476 525.901C81.3705 524.695 81.4577 523.486 81.5172 522.277C81.5806 521.068 81.6084 519.858 81.6084 518.645V368.413C81.6123 366.617 81.6837 364.825 81.8304 363.037C81.9771 361.249 82.1952 359.469 82.4846 357.696C82.774 355.924 83.1309 354.168 83.563 352.427C83.9952 350.682 84.4948 348.962 85.0618 347.257C85.6327 345.556 86.271 343.879 86.9728 342.229C87.6786 340.58 88.4477 338.958 89.2803 337.368C90.1169 335.783 91.013 334.228 91.9725 332.71C92.932 331.195 93.9509 329.72 95.0294 328.285C96.1078 326.85 97.2418 325.462 98.4352 324.118C99.6246 322.774 100.866 321.481 102.162 320.236C103.455 318.995 104.799 317.806 106.186 316.672C107.578 315.534 109.013 314.46 110.488 313.437C111.967 312.418 113.482 311.458 115.036 310.562C116.59 309.666 118.176 308.829 119.798 308.06C121.419 307.291 123.069 306.585 124.75 305.951C126.427 305.313 128.128 304.746 129.849 304.246C128.124 303.751 126.415 303.184 124.734 302.553C123.049 301.919 121.396 301.221 119.77 300.452C118.144 299.687 116.551 298.854 114.992 297.962C113.43 297.066 111.912 296.11 110.429 295.091C108.946 294.072 107.507 292.998 106.111 291.864C104.715 290.73 103.367 289.541 102.067 288.3C100.77 287.059 99.5215 285.766 98.3281 284.422C97.1307 283.078 95.9928 281.69 94.9065 280.255C93.8241 278.82 92.8011 277.345 91.8377 275.826C90.8742 274.308 89.9702 272.753 89.1336 271.164C88.2931 269.574 87.52 267.952 86.8102 266.299C86.1045 264.645 85.4622 262.968 84.8913 261.263C84.3164 259.558 83.8128 257.834 83.3806 256.089C82.9445 254.345 82.5837 252.584 82.2903 250.812C82.0009 249.036 81.7789 247.255 81.6322 245.463C81.4855 243.671 81.4101 241.875 81.4062 240.079V89.8432C81.4062 88.634 81.3745 87.4287 81.311 86.2194C81.2515 85.0141 81.1604 83.8088 81.0414 82.6034C80.9225 81.4021 80.7718 80.2008 80.5934 79.0073C80.415 77.81 80.2088 76.6205 79.9709 75.435C79.737 74.2495 79.4713 73.072 79.174 71.8984C78.8806 70.7248 78.5594 69.5631 78.2065 68.4053C77.8576 67.2476 77.477 66.1018 77.0686 64.9639C76.6602 63.8259 76.2281 62.696 75.7642 61.5818C75.3003 60.4637 74.8127 59.3576 74.2972 58.2672C73.7778 57.1729 73.2346 56.0945 72.6677 55.028C72.0967 53.9614 71.502 52.9107 70.8795 51.8719C70.261 50.8371 69.6147 49.8142 68.9447 48.8071C68.2707 47.804 67.5768 46.8128 66.8592 45.8414C66.1376 44.87 65.3961 43.9185 64.6309 42.9828C63.8657 42.0471 63.0767 41.1312 62.2639 40.2351C61.455 39.3391 60.6225 38.4628 59.77 37.6064C58.9136 36.75 58.0414 35.9174 57.1453 35.1006C56.2532 34.2878 55.3373 33.4988 54.4056 32.7297C53.4738 31.9605 52.5223 31.2151 51.5509 30.4935C50.5835 29.7719 49.5962 29.0741 48.5931 28.4001C47.59 27.726 46.5671 27.0798 45.5323 26.4533C44.4974 25.8308 43.4467 25.2321 42.3842 24.6612C41.3176 24.0903 40.2392 23.5431 39.1489 23.0237C38.0585 22.5043 36.9524 22.0087 35.8382 21.5448C34.7241 21.081 33.5981 20.6409 32.4602 20.2285C31.3223 19.8201 30.1764 19.4355 29.0226 19.0827C27.8649 18.7298 26.7032 18.4007 25.5296 18.1034C24.36 17.806 23.1785 17.5403 21.9969 17.2985C20.8115 17.0566 19.622 16.8465 18.4246 16.6681C17.2312 16.4857 16.0298 16.3311 14.8285 16.2082C13.6271 16.0853 12.4218 15.9941 11.2165 15.9267C10.0072 15.8632 8.79797 15.8315 7.59265 15.8236H-92.2064C-92.3135 16.335 -92.4483 16.8386 -92.6148 17.3342C-92.7773 17.8298 -92.9756 18.3095 -93.2016 18.7813C-93.4236 19.2532 -93.6774 19.7091 -93.9589 20.1453C-94.2404 20.5854 -94.5457 21.0056 -94.8787 21.41C-95.2118 21.8105 -95.5686 22.1911 -95.9492 22.5519C-96.3259 22.9087 -96.7263 23.2418 -97.1466 23.5511C-97.5669 23.8603 -98.007 24.1418 -98.459 24.3995C-98.9149 24.6533 -99.3828 24.8793 -99.8665 25.0775C-100.35 25.2758 -100.842 25.4462 -101.345 25.5811C-101.849 25.7198 -102.36 25.8269 -102.876 25.9022C-103.391 25.9775 -103.911 26.0212 -104.434 26.033C-104.953 26.041 -105.477 26.0212 -105.996 25.9696C-106.512 25.9181 -107.027 25.8348 -107.535 25.7159C-108.046 25.6009 -108.546 25.4542 -109.037 25.2797C-109.529 25.1013 -110.005 24.8951 -110.472 24.6612C-110.936 24.4273 -111.384 24.1616 -111.82 23.8722C-112.253 23.5828 -112.665 23.2656 -113.062 22.9246C-113.458 22.5836 -113.827 22.2189 -114.18 21.8303C-114.529 21.4457 -114.854 21.0373 -115.155 20.6091C-115.452 20.1849 -115.726 19.7408 -115.972 19.277C-116.218 18.817 -116.436 18.3452 -116.622 17.8575C-116.808 17.3699 -116.967 16.8743 -117.094 16.3668C-117.221 15.8632 -117.316 15.3478 -117.379 14.8324C-117.443 14.313 -117.474 13.7936 -117.474 13.2742C-117.474 12.7508 -117.443 12.2314 -117.379 11.712C-117.316 11.1966 -117.221 10.6812 -117.094 10.1776C-116.967 9.67013 -116.808 9.17453 -116.622 8.68685C-116.436 8.19918 -116.218 7.72736 -115.972 7.26744C-115.726 6.80355 -115.452 6.36345 -115.155 5.93525C-114.854 5.50705 -114.529 5.10263 -114.18 4.71408C-113.827 4.32552 -113.454 3.96076 -113.062 3.61978C-112.665 3.27881 -112.253 2.96558 -111.82 2.67218C-111.384 2.38275 -110.936 2.12107 -110.472 1.88318C-110.005 1.64925 -109.529 1.44308 -109.037 1.26466C-108.546 1.09021 -108.046 0.943512 -107.535 0.828531C-107.027 0.709586 -106.512 0.626325 -105.996 0.574781C-105.477 0.523238 -104.953 0.503414 -104.434 0.515308C-103.911 0.523238 -103.391 0.566852 -102.876 0.642183C-102.36 0.717515 -101.849 0.824566 -101.345 0.963336C-100.842 1.09814 -100.35 1.26863 -99.8665 1.46687C-99.3828 1.66511 -98.9149 1.89111 -98.459 2.14486C-98.007 2.40257 -97.5669 2.68408 -97.1466 2.99334C-96.7263 3.30259 -96.3259 3.63564 -95.9492 3.99644C-95.5686 4.35328 -95.2118 4.7339 -94.8787 5.13435C-94.5457 5.53877 -94.2404 5.95904 -93.9589 6.39914C-93.6774 6.83527 -93.4236 7.29123 -93.2016 7.76304C-92.9756 8.23486 -92.7773 8.71461 -92.6148 9.21021C-92.4483 9.70582 -92.3135 10.2094 -92.2064 10.7208H7.59265C8.88519 10.7208 10.1777 10.7525 11.4742 10.816C12.7668 10.8834 14.0554 10.9785 15.3439 11.1054C16.6325 11.2323 17.9171 11.3909 19.1978 11.5812C20.4784 11.7755 21.7551 11.9975 23.0238 12.2473C24.2926 12.501 25.5574 12.7865 26.8103 13.0997C28.0671 13.4169 29.316 13.7619 30.5531 14.1385C31.7941 14.5152 33.0232 14.9196 34.2404 15.3597C35.4576 15.7958 36.6669 16.2597 37.8643 16.7553C39.0577 17.2509 40.2432 17.7782 41.4128 18.3294C42.5824 18.8844 43.7362 19.4673 44.8781 20.0778C46.0199 20.6884 47.1459 21.3268 48.2561 21.9929C49.3663 22.659 50.4606 23.3528 51.539 24.0704C52.6135 24.7881 53.6721 25.5335 54.7109 26.3066C55.7536 27.0798 56.7726 27.8727 57.7717 28.6974C58.7748 29.5181 59.7542 30.3627 60.7137 31.231C61.6732 32.1032 62.6088 32.9953 63.5247 33.9112C64.4406 34.8271 65.3327 35.7628 66.201 36.7223C67.0732 37.6818 67.9178 38.6611 68.7385 39.6602C69.5592 40.6633 70.3562 41.6823 71.1293 42.7211C71.8985 43.7638 72.6439 44.8224 73.3654 45.8969C74.0831 46.9754 74.7769 48.0657 75.4431 49.1758C76.1092 50.286 76.7475 51.412 77.3581 52.5539C77.9687 53.6958 78.5515 54.8535 79.1026 56.0231C79.6577 57.1928 80.181 58.3782 80.6766 59.5717C81.1762 60.769 81.6401 61.9744 82.0762 63.1955C82.5124 64.4127 82.9207 65.6418 83.2974 66.8828C83.674 68.1199 84.019 69.3688 84.3322 70.6217C84.6494 71.8785 84.9349 73.1433 85.1847 74.4121C85.4384 75.6808 85.6605 76.9575 85.8508 78.2382C86.0411 79.5188 86.2036 80.8034 86.3305 82.092C86.4574 83.3766 86.5525 84.6691 86.616 85.9617C86.6834 87.2542 86.7151 88.5507 86.7151 89.8432V240.079C86.7191 242.093 86.8182 244.099 87.0204 246.106C87.2186 248.108 87.516 250.098 87.9125 252.073C88.305 254.047 88.7966 255.998 89.3834 257.925C89.9662 259.852 90.6482 261.747 91.4174 263.607C92.1905 265.466 93.0469 267.286 93.9985 269.062C94.9461 270.838 95.981 272.563 97.099 274.236C98.2171 275.913 99.4145 277.527 100.691 279.085C101.964 280.643 103.316 282.138 104.735 283.562C106.159 284.989 107.649 286.341 109.204 287.622C110.758 288.902 112.372 290.104 114.045 291.226C115.714 292.348 117.439 293.382 119.211 294.338C120.987 295.29 122.803 296.154 124.659 296.931C126.518 297.708 128.409 298.39 130.336 298.981C132.263 299.572 134.21 300.067 136.184 300.464C138.159 300.864 140.145 301.165 142.152 301.372C144.154 301.578 146.164 301.685 148.178 301.693H415.972C416.079 301.181 416.213 300.678 416.38 300.182C416.547 299.691 416.741 299.207 416.967 298.735C417.193 298.263 417.443 297.811 417.724 297.371C418.006 296.931 418.315 296.511 418.648 296.106C418.977 295.706 419.334 295.325 419.714 294.968C420.095 294.608 420.492 294.275 420.912 293.965C421.332 293.656 421.772 293.375 422.228 293.117C422.68 292.863 423.152 292.637 423.632 292.439C424.115 292.241 424.607 292.07 425.111 291.935C425.614 291.797 426.126 291.689 426.641 291.614C427.156 291.539 427.676 291.495 428.199 291.487C428.719 291.475 429.242 291.495 429.761 291.547C430.281 291.598 430.792 291.686 431.304 291.801C431.811 291.915 432.311 292.062 432.802 292.237C433.294 292.415 433.77 292.621 434.238 292.855C434.702 293.093 435.154 293.355 435.586 293.644C436.018 293.938 436.434 294.251 436.827 294.592C437.223 294.937 437.596 295.298 437.945 295.686C438.294 296.075 438.619 296.479 438.92 296.907C439.217 297.335 439.491 297.779 439.737 298.239C439.983 298.699 440.201 299.171 440.387 299.659C440.573 300.147 440.732 300.642 440.859 301.15C440.986 301.653 441.081 302.169 441.144 302.684C441.208 303.203 441.24 303.723 441.24 304.246C441.24 304.766 441.208 305.285 441.144 305.804C441.081 306.324 440.986 306.835 440.859 307.339C440.732 307.846 440.573 308.342 440.387 308.83C440.201 309.317 439.983 309.789 439.737 310.253C439.491 310.713 439.217 311.157 438.92 311.581C438.619 312.009 438.294 312.418 437.945 312.802C437.596 313.191 437.223 313.556 436.827 313.897C436.434 314.238 436.018 314.555 435.586 314.844C435.154 315.134 434.702 315.399 434.238 315.633C433.77 315.867 433.294 316.073 432.802 316.252C432.311 316.43 431.811 316.573 431.304 316.692C430.792 316.807 430.281 316.89 429.761 316.942C429.242 316.993 428.719 317.013 428.199 317.005C427.676 316.993 427.156 316.949 426.641 316.874C426.126 316.799 425.614 316.692 425.111 316.553C424.607 316.418 424.115 316.248 423.632 316.049C423.152 315.855 422.68 315.625 422.228 315.372C421.772 315.114 421.332 314.832 420.912 314.523C420.492 314.214 420.095 313.881 419.714 313.524C419.334 313.163 418.977 312.782 418.648 312.382C418.315 311.982 418.006 311.557 417.724 311.121C417.443 310.681 417.193 310.225 416.967 309.753C416.741 309.282 416.547 308.802 416.38 308.306C416.213 307.811 416.079 307.307 415.972 306.796H148.178C146.16 306.8 144.146 306.899 142.136 307.097C140.129 307.299 138.135 307.592 136.157 307.989C134.178 308.385 132.224 308.873 130.293 309.46C128.358 310.047 126.463 310.729 124.599 311.498C122.732 312.271 120.912 313.135 119.132 314.087C117.351 315.038 115.623 316.073 113.946 317.195C112.269 318.317 110.647 319.515 109.089 320.795C107.527 322.076 106.032 323.428 104.604 324.855C103.177 326.283 101.825 327.774 100.54 329.336C99.2599 330.894 98.0585 332.512 96.9365 334.189C95.8144 335.866 94.7756 337.594 93.8241 339.375C92.8725 341.151 92.0081 342.975 91.235 344.838C90.4579 346.702 89.7759 348.597 89.1891 350.528C88.6024 352.459 88.1107 354.413 87.7142 356.392C87.3177 358.37 87.0164 360.365 86.8182 362.371C86.616 364.381 86.5129 366.395 86.5089 368.413V518.645C86.5089 519.938 86.4772 521.23 86.4138 522.519C86.3503 523.811 86.2552 525.1 86.1283 526.388C85.9975 527.673 85.8389 528.954 85.6525 530.234C85.4622 531.511 85.2402 532.784 84.9864 534.052C84.7366 535.321 84.4512 536.582 84.1379 537.835C83.8247 539.088 83.4798 540.333 83.1031 541.57C82.7265 542.807 82.3221 544.036 81.8899 545.253C81.4538 546.47 80.9899 547.676 80.4943 548.869C79.9987 550.063 79.4753 551.244 78.9242 552.414C78.373 553.583 77.7902 554.737 77.1836 555.879C76.573 557.017 75.9387 558.143 75.2726 559.253C74.6104 560.363 73.9206 561.454 73.2029 562.528C72.4853 563.602 71.7438 564.661 70.9747 565.7C70.2055 566.739 69.4125 567.758 68.5918 568.757C67.7711 569.76 66.9305 570.739 66.0622 571.699C65.1979 572.654 64.3058 573.594 63.3939 574.506C62.482 575.422 61.5463 576.314 60.5907 577.186C59.6312 578.054 58.6559 578.899 57.6567 579.72C56.6616 580.544 55.6426 581.337 54.6038 582.11C53.569 582.883 52.5143 583.629 51.4399 584.347C50.3654 585.068 49.2751 585.762 48.1689 586.428C47.0627 587.094 45.9367 587.732 44.7988 588.347C43.6609 588.958 42.5071 589.541 41.3414 590.096C40.1718 590.651 38.9942 591.178 37.8008 591.674C36.6074 592.173 35.4021 592.641 34.1849 593.077C32.9716 593.517 31.7425 593.926 30.5095 594.302C29.2724 594.683 28.0275 595.028 26.7746 595.345C25.5217 595.662 24.2609 595.952 22.9961 596.205C21.7274 596.463 20.4546 596.685 19.1779 596.879C17.8973 597.074 16.6166 597.236 15.332 597.363C14.0435 597.494 12.7549 597.593 11.4663 597.66C10.1738 597.728 8.88519 597.764 7.59265 597.768H-92.2064C-92.369 598.557 -92.5989 599.318 -92.9042 600.059C-93.2095 600.805 -93.5782 601.51 -94.0184 602.18C-94.4545 602.854 -94.9501 603.477 -95.5092 604.056C-96.0642 604.635 -96.6669 605.158 -97.3211 605.622C-97.9753 606.086 -98.6652 606.486 -99.3947 606.819C-100.124 607.152 -100.878 607.414 -101.655 607.608C-102.436 607.799 -103.225 607.918 -104.026 607.961C-104.827 608.005 -105.623 607.973 -106.42 607.866C-107.213 607.755 -107.99 607.577 -108.752 607.323C-109.513 607.069 -110.242 606.748 -110.944 606.355C-111.642 605.963 -112.3 605.511 -112.915 604.995C-113.529 604.48 -114.088 603.909 -114.596 603.291C-115.103 602.668 -115.547 602.006 -115.932 601.3C-116.313 600.594 -116.626 599.861 -116.868 599.096C-117.114 598.335 -117.284 597.553 -117.379 596.757C-117.478 595.96 -117.498 595.163 -117.447 594.362C-117.391 593.561 -117.264 592.776 -117.062 591.999C-116.86 591.222 -116.586 590.472 -116.241 589.747C-115.9 589.025 -115.492 588.339 -115.016 587.689C-114.544 587.043 -114.013 586.444 -113.43 585.897C-112.843 585.35 -112.213 584.862 -111.535 584.434C-110.857 584.002 -110.143 583.641 -109.398 583.347C-108.653 583.054 -107.887 582.832 -107.098 582.681C-106.309 582.531 -105.516 582.455 -104.716 582.455Z" fill="white"/>
</svg>
