<svg width="465" height="609" viewBox="0 0 465 609" fill="none" xmlns="http://www.w3.org/2000/svg">
<path d="M570.716 582.455C569.986 582.455 569.26 582.519 568.539 582.642C567.821 582.765 567.115 582.951 566.43 583.197C565.74 583.439 565.081 583.744 564.443 584.101C563.809 584.458 563.206 584.87 562.643 585.33C562.076 585.794 561.553 586.297 561.073 586.852C560.597 587.403 560.169 587.99 559.788 588.613C559.412 589.239 559.091 589.893 558.825 590.571C558.559 591.253 558.353 591.951 558.206 592.665H458.407C457.198 592.665 455.989 592.633 454.78 592.574C453.566 592.514 452.361 592.423 451.156 592.304C449.95 592.185 448.749 592.034 447.552 591.856C446.354 591.678 445.161 591.471 443.971 591.233C442.786 590.996 441.604 590.73 440.427 590.437C439.253 590.143 438.088 589.818 436.93 589.465C435.768 589.112 434.618 588.732 433.48 588.323C432.339 587.915 431.208 587.479 430.09 587.015C428.972 586.551 427.866 586.063 426.772 585.544C425.678 585.025 424.595 584.481 423.529 583.91C422.458 583.339 421.403 582.741 420.365 582.118C419.33 581.496 418.307 580.846 417.3 580.176C416.293 579.502 415.302 578.804 414.33 578.082C413.355 577.36 412.403 576.615 411.464 575.846C410.528 575.081 409.612 574.288 408.716 573.475C407.816 572.662 406.94 571.826 406.083 570.969C405.227 570.113 404.394 569.237 403.581 568.34C402.765 567.44 401.976 566.525 401.207 565.589C400.437 564.653 399.692 563.698 398.97 562.726C398.249 561.755 397.555 560.764 396.881 559.757C396.207 558.75 395.561 557.727 394.934 556.688C394.312 555.649 393.717 554.594 393.146 553.528C392.575 552.461 392.028 551.379 391.512 550.285C390.993 549.19 390.501 548.084 390.038 546.962C389.574 545.844 389.138 544.714 388.729 543.576C388.321 542.434 387.94 541.284 387.587 540.127C387.234 538.969 386.913 537.799 386.62 536.626C386.323 535.452 386.057 534.271 385.819 533.081C385.585 531.896 385.375 530.702 385.197 529.505C385.018 528.307 384.871 527.106 384.752 525.901C384.63 524.695 384.542 523.486 384.483 522.277C384.419 521.068 384.392 519.858 384.392 518.645V368.413C384.388 366.617 384.316 364.825 384.17 363.037C384.023 361.249 383.805 359.469 383.515 357.696C383.226 355.924 382.869 354.168 382.437 352.427C382.005 350.682 381.505 348.962 380.938 347.257C380.367 345.556 379.729 343.879 379.027 342.229C378.321 340.58 377.552 338.958 376.72 337.368C375.883 335.783 374.987 334.228 374.028 332.71C373.068 331.195 372.049 329.72 370.971 328.285C369.892 326.85 368.758 325.462 367.565 324.118C366.375 322.774 365.134 321.481 363.838 320.236C362.545 318.995 361.201 317.806 359.814 316.672C358.422 315.534 356.987 314.46 355.512 313.437C354.033 312.418 352.518 311.458 350.964 310.562C349.41 309.666 347.824 308.83 346.202 308.06C344.581 307.291 342.931 306.585 341.25 305.951C339.573 305.313 337.872 304.746 336.151 304.246C337.876 303.751 339.585 303.184 341.266 302.553C342.951 301.919 344.604 301.221 346.23 300.452C347.856 299.687 349.449 298.854 351.008 297.962C352.57 297.066 354.088 296.11 355.571 295.091C357.054 294.072 358.493 292.998 359.889 291.864C361.285 290.73 362.633 289.541 363.933 288.3C365.23 287.059 366.478 285.766 367.672 284.422C368.869 283.078 370.007 281.69 371.094 280.255C372.176 278.82 373.199 277.345 374.162 275.826C375.126 274.308 376.03 272.753 376.866 271.164C377.707 269.574 378.48 267.952 379.19 266.299C379.896 264.645 380.538 262.968 381.109 261.263C381.684 259.558 382.187 257.834 382.619 256.089C383.055 254.345 383.416 252.584 383.71 250.812C383.999 249.036 384.221 247.255 384.368 245.463C384.515 243.671 384.59 241.875 384.594 240.079V89.8432C384.594 88.634 384.626 87.4287 384.689 86.2194C384.748 85.0141 384.84 83.8088 384.959 82.6034C385.078 81.4021 385.228 80.2007 385.407 79.0073C385.585 77.8099 385.791 76.6205 386.029 75.435C386.263 74.2495 386.529 73.072 386.826 71.8984C387.119 70.7248 387.441 69.5631 387.793 68.4053C388.142 67.2476 388.523 66.1018 388.931 64.9639C389.34 63.8259 389.772 62.696 390.236 61.5818C390.7 60.4638 391.187 59.3576 391.703 58.2672C392.222 57.1729 392.765 56.0945 393.332 55.028C393.903 53.9614 394.498 52.9107 395.12 51.8719C395.739 50.8371 396.385 49.8142 397.055 48.8071C397.729 47.804 398.423 46.8128 399.141 45.8414C399.862 44.87 400.604 43.9185 401.369 42.9828C402.134 42.0471 402.923 41.1312 403.736 40.2351C404.545 39.3391 405.378 38.4628 406.23 37.6064C407.086 36.75 407.959 35.9174 408.855 35.1006C409.747 34.2878 410.663 33.4988 411.594 32.7297C412.526 31.9605 413.478 31.2151 414.449 30.4935C415.417 29.7719 416.404 29.0741 417.407 28.4001C418.41 27.726 419.433 27.0798 420.468 26.4533C421.503 25.8308 422.553 25.2321 423.616 24.6612C424.682 24.0903 425.761 23.5431 426.851 23.0237C427.941 22.5043 429.048 22.0087 430.162 21.5448C431.276 21.081 432.402 20.6409 433.54 20.2285C434.678 19.8201 435.824 19.4355 436.977 19.0827C438.135 18.7298 439.297 18.4007 440.47 18.1034C441.64 17.806 442.822 17.5403 444.003 17.2985C445.189 17.0566 446.378 16.8465 447.575 16.6681C448.769 16.4857 449.97 16.3311 451.172 16.2082C452.373 16.0853 453.578 15.9941 454.783 15.9267C455.993 15.8632 457.202 15.8315 458.407 15.8236H558.206C558.313 16.335 558.448 16.8386 558.615 17.3342C558.777 17.8298 558.976 18.3095 559.202 18.7813C559.424 19.2532 559.677 19.7091 559.959 20.1453C560.24 20.5854 560.546 21.0056 560.879 21.41C561.212 21.8105 561.569 22.1911 561.949 22.5519C562.326 22.9087 562.726 23.2418 563.147 23.5511C563.567 23.8603 564.007 24.1418 564.459 24.3995C564.915 24.6533 565.383 24.8793 565.867 25.0775C566.35 25.2758 566.842 25.4462 567.345 25.5811C567.849 25.7198 568.36 25.8269 568.876 25.9022C569.391 25.9775 569.911 26.0212 570.434 26.033C570.953 26.041 571.477 26.0212 571.996 25.9696C572.512 25.9181 573.027 25.8348 573.535 25.7159C574.046 25.6009 574.546 25.4542 575.037 25.2797C575.529 25.1013 576.005 24.8951 576.472 24.6612C576.936 24.4273 577.384 24.1616 577.82 23.8722C578.253 23.5828 578.665 23.2656 579.062 22.9246C579.458 22.5836 579.827 22.2189 580.18 21.8303C580.529 21.4457 580.854 21.0373 581.155 20.6091C581.452 20.1849 581.726 19.7408 581.972 19.277C582.218 18.817 582.436 18.3452 582.622 17.8575C582.808 17.3699 582.967 16.8743 583.094 16.3668C583.221 15.8632 583.316 15.3478 583.379 14.8324C583.443 14.313 583.474 13.7936 583.474 13.2742C583.474 12.7508 583.443 12.2314 583.379 11.712C583.316 11.1966 583.221 10.6812 583.094 10.1776C582.967 9.67013 582.808 9.17453 582.622 8.68685C582.436 8.19918 582.218 7.72736 581.972 7.26744C581.726 6.80355 581.452 6.36345 581.155 5.93525C580.854 5.50705 580.529 5.10263 580.18 4.71408C579.827 4.32552 579.454 3.96076 579.062 3.61978C578.665 3.27881 578.253 2.96558 577.82 2.67218C577.384 2.38275 576.936 2.12107 576.472 1.88318C576.005 1.64925 575.529 1.44308 575.037 1.26466C574.546 1.09021 574.046 0.943512 573.535 0.828531C573.027 0.709586 572.512 0.626325 571.996 0.574781C571.477 0.523238 570.953 0.503414 570.434 0.515308C569.911 0.523238 569.391 0.566852 568.876 0.642183C568.36 0.717515 567.849 0.824566 567.345 0.963336C566.842 1.09814 566.35 1.26863 565.867 1.46687C565.383 1.66511 564.915 1.89111 564.459 2.14486C564.007 2.40257 563.567 2.68408 563.147 2.99334C562.726 3.30259 562.326 3.63564 561.949 3.99644C561.569 4.35328 561.212 4.7339 560.879 5.13435C560.546 5.53877 560.24 5.95904 559.959 6.39914C559.677 6.83527 559.424 7.29123 559.202 7.76304C558.976 8.23486 558.777 8.71461 558.615 9.21021C558.448 9.70582 558.313 10.2094 558.206 10.7208H458.407C457.115 10.7208 455.822 10.7525 454.526 10.816C453.233 10.8834 451.945 10.9785 450.656 11.1054C449.367 11.2323 448.083 11.3909 446.802 11.5812C445.522 11.7755 444.245 11.9975 442.976 12.2473C441.707 12.501 440.443 12.7865 439.19 13.0997C437.933 13.4169 436.684 13.7619 435.447 14.1385C434.206 14.5152 432.977 14.9196 431.76 15.3597C430.542 15.7958 429.333 16.2597 428.136 16.7553C426.942 17.2509 425.757 17.7782 424.587 18.3294C423.418 18.8844 422.264 19.4673 421.122 20.0778C419.98 20.6884 418.854 21.3268 417.744 21.9929C416.634 22.659 415.539 23.3528 414.461 24.0704C413.387 24.7881 412.328 25.5335 411.289 26.3066C410.246 27.0798 409.227 27.8727 408.228 28.6974C407.225 29.5181 406.246 30.3627 405.286 31.231C404.327 32.1032 403.391 32.9953 402.475 33.9112C401.559 34.8271 400.667 35.7628 399.799 36.7223C398.927 37.6818 398.082 38.6611 397.262 39.6602C396.441 40.6633 395.644 41.6823 394.871 42.7211C394.102 43.7638 393.356 44.8224 392.635 45.8969C391.917 46.9754 391.223 48.0657 390.557 49.1758C389.891 50.286 389.253 51.412 388.642 52.5539C388.031 53.6958 387.449 54.8535 386.897 56.0231C386.342 57.1928 385.819 58.3782 385.323 59.5717C384.824 60.769 384.36 61.9744 383.924 63.1955C383.488 64.4127 383.079 65.6418 382.703 66.8828C382.326 68.1199 381.981 69.3688 381.668 70.6217C381.351 71.8785 381.065 73.1433 380.815 74.4121C380.562 75.6808 380.34 76.9575 380.149 78.2382C379.959 79.5188 379.796 80.8034 379.669 82.092C379.543 83.3766 379.447 84.6691 379.384 85.9617C379.317 87.2542 379.285 88.5507 379.285 89.8432V240.079C379.281 242.093 379.182 244.099 378.98 246.106C378.781 248.108 378.484 250.098 378.088 252.073C377.695 254.047 377.203 255.998 376.617 257.925C376.034 259.852 375.352 261.747 374.583 263.607C373.809 265.466 372.953 267.286 372.001 269.062C371.054 270.838 370.019 272.563 368.901 274.236C367.783 275.913 366.586 277.527 365.309 279.085C364.036 280.643 362.684 282.138 361.265 283.562C359.841 284.989 358.351 286.341 356.796 287.622C355.242 288.902 353.628 290.104 351.955 291.226C350.286 292.348 348.561 293.382 346.789 294.338C345.013 295.29 343.197 296.154 341.341 296.931C339.482 297.708 337.591 298.39 335.664 298.981C333.737 299.572 331.79 300.067 329.816 300.464C327.841 300.864 325.855 301.165 323.848 301.372C321.846 301.578 319.836 301.685 317.822 301.693H50.0284C49.9213 301.181 49.7865 300.678 49.62 300.182C49.4535 299.691 49.2592 299.207 49.0332 298.735C48.8072 298.263 48.5574 297.811 48.2759 297.371C47.9944 296.931 47.6852 296.511 47.3521 296.106C47.023 295.706 46.6662 295.325 46.2856 294.968C45.905 294.608 45.5085 294.275 45.0882 293.965C44.6679 293.656 44.2278 293.375 43.7719 293.117C43.3199 292.863 42.8481 292.637 42.3683 292.439C41.8846 292.241 41.393 292.07 40.8894 291.935C40.3859 291.797 39.8744 291.689 39.359 291.614C38.8436 291.539 38.3242 291.495 37.8008 291.487C37.2814 291.475 36.7581 291.495 36.2387 291.547C35.7193 291.598 35.2078 291.686 34.6963 291.801C34.1888 291.915 33.6893 292.062 33.1976 292.237C32.706 292.415 32.2302 292.621 31.7624 292.855C31.2985 293.093 30.8465 293.355 30.4143 293.644C29.9821 293.938 29.5658 294.251 29.1733 294.592C28.7768 294.937 28.4041 295.298 28.0552 295.686C27.7063 296.075 27.3812 296.479 27.0799 296.907C26.7825 297.335 26.5089 297.78 26.2631 298.239C26.0173 298.699 25.7992 299.171 25.6129 299.659C25.4265 300.147 25.2679 300.642 25.1411 301.15C25.0142 301.653 24.919 302.169 24.8556 302.684C24.7922 303.203 24.7604 303.723 24.7604 304.246C24.7604 304.766 24.7922 305.285 24.8556 305.804C24.919 306.324 25.0142 306.835 25.1411 307.339C25.2679 307.846 25.4265 308.342 25.6129 308.83C25.7992 309.317 26.0173 309.789 26.2631 310.253C26.5089 310.713 26.7825 311.157 27.0799 311.581C27.3812 312.009 27.7063 312.418 28.0552 312.802C28.4041 313.191 28.7768 313.556 29.1733 313.897C29.5658 314.238 29.9821 314.555 30.4143 314.844C30.8465 315.134 31.2985 315.399 31.7624 315.633C32.2302 315.867 32.706 316.073 33.1976 316.252C33.6893 316.43 34.1888 316.573 34.6963 316.692C35.2078 316.807 35.7193 316.89 36.2387 316.942C36.7581 316.993 37.2814 317.013 37.8008 317.005C38.3242 316.993 38.8436 316.95 39.359 316.874C39.8744 316.799 40.3859 316.692 40.8894 316.553C41.393 316.418 41.8846 316.248 42.3683 316.049C42.8481 315.855 43.3199 315.625 43.7719 315.372C44.2278 315.114 44.6679 314.832 45.0882 314.523C45.5085 314.214 45.905 313.881 46.2856 313.524C46.6662 313.163 47.023 312.782 47.3521 312.382C47.6852 311.982 47.9944 311.557 48.2759 311.121C48.5574 310.681 48.8072 310.225 49.0332 309.753C49.2592 309.282 49.4535 308.802 49.62 308.306C49.7865 307.811 49.9213 307.307 50.0284 306.796H317.822C319.84 306.8 321.854 306.899 323.864 307.097C325.871 307.299 327.865 307.592 329.843 307.989C331.822 308.385 333.776 308.873 335.707 309.46C337.642 310.047 339.537 310.729 341.401 311.498C343.268 312.271 345.088 313.135 346.868 314.087C348.649 315.038 350.377 316.073 352.054 317.195C353.731 318.317 355.353 319.515 356.911 320.795C358.473 322.076 359.968 323.428 361.396 324.855C362.823 326.283 364.175 327.774 365.46 329.336C366.74 330.894 367.941 332.512 369.064 334.189C370.186 335.866 371.224 337.594 372.176 339.375C373.128 341.151 373.992 342.975 374.765 344.838C375.542 346.702 376.224 348.597 376.811 350.528C377.398 352.459 377.889 354.413 378.286 356.392C378.682 358.37 378.984 360.365 379.182 362.371C379.384 364.381 379.487 366.395 379.491 368.413V518.645C379.491 519.938 379.523 521.23 379.586 522.519C379.65 523.811 379.745 525.1 379.872 526.388C380.003 527.673 380.161 528.954 380.347 530.234C380.538 531.511 380.76 532.784 381.014 534.052C381.263 535.321 381.549 536.582 381.862 537.835C382.175 539.088 382.52 540.333 382.897 541.57C383.274 542.807 383.678 544.036 384.11 545.253C384.546 546.47 385.01 547.676 385.506 548.869C386.001 550.063 386.525 551.244 387.076 552.414C387.627 553.583 388.21 554.737 388.816 555.879C389.427 557.017 390.061 558.143 390.727 559.253C391.39 560.363 392.079 561.454 392.797 562.528C393.515 563.602 394.256 564.661 395.025 565.7C395.795 566.739 396.587 567.758 397.408 568.757C398.229 569.76 399.069 570.739 399.938 571.699C400.802 572.654 401.694 573.594 402.606 574.506C403.518 575.422 404.454 576.314 405.409 577.186C406.369 578.054 407.344 578.899 408.343 579.72C409.338 580.544 410.357 581.337 411.396 582.11C412.431 582.883 413.486 583.629 414.56 584.347C415.635 585.068 416.725 585.762 417.831 586.428C418.937 587.094 420.063 587.733 421.201 588.347C422.339 588.958 423.493 589.54 424.659 590.096C425.828 590.651 427.006 591.178 428.199 591.674C429.393 592.173 430.598 592.641 431.815 593.077C433.028 593.517 434.257 593.926 435.491 594.302C436.728 594.683 437.973 595.028 439.225 595.345C440.478 595.662 441.739 595.952 443.004 596.205C444.273 596.463 445.545 596.685 446.822 596.879C448.103 597.074 449.383 597.236 450.668 597.363C451.957 597.494 453.245 597.593 454.534 597.66C455.826 597.728 457.115 597.764 458.407 597.768H558.206C558.369 598.557 558.599 599.318 558.904 600.059C559.21 600.805 559.578 601.51 560.018 602.18C560.454 602.854 560.95 603.477 561.509 604.056C562.064 604.635 562.667 605.158 563.321 605.622C563.975 606.086 564.665 606.486 565.395 606.819C566.124 607.152 566.878 607.414 567.655 607.608C568.436 607.799 569.225 607.918 570.026 607.961C570.827 608.005 571.623 607.973 572.42 607.866C573.213 607.755 573.99 607.577 574.752 607.323C575.513 607.069 576.242 606.748 576.944 606.355C577.642 605.963 578.3 605.511 578.915 604.995C579.529 604.48 580.088 603.909 580.596 603.291C581.103 602.668 581.547 602.006 581.932 601.3C582.313 600.594 582.626 599.861 582.868 599.096C583.114 598.335 583.284 597.553 583.379 596.757C583.478 595.96 583.498 595.163 583.447 594.362C583.391 593.561 583.264 592.776 583.062 591.999C582.86 591.222 582.586 590.472 582.241 589.747C581.9 589.025 581.492 588.339 581.016 587.689C580.544 587.043 580.013 586.444 579.43 585.897C578.843 585.35 578.213 584.862 577.535 584.434C576.857 584.002 576.143 583.641 575.398 583.347C574.653 583.054 573.887 582.832 573.098 582.681C572.309 582.531 571.516 582.455 570.716 582.455Z" fill="white"/>
</svg>
