<svg width="137" height="39" viewBox="0 0 137 39" fill="none" xmlns="http://www.w3.org/2000/svg">
<path d="M133.323 30.1503C135.354 30.1503 136.979 28.5244 136.979 26.49C136.979 24.4583 135.354 22.8324 133.397 22.8324H70.2252C67.1564 19.3957 60.6187 13.1489 54.633 14.8852C50.8301 15.9949 48.5396 19.727 47.8 26.0483C47.5047 28.7452 47.0245 30.1117 46.7292 30.7769C45.5094 29.9267 43.55 27.561 42.0736 25.1595C41.3726 21.2783 38.2321 5.86691 30.5464 1.06378C28.5897 -0.156319 26.4096 -0.341271 24.3784 0.583469C19.9436 2.61514 17.0625 10.4879 15.3266 17.3999L10.2295 10.0821C9.41538 8.93373 7.97482 8.343 6.57013 8.60248C5.16821 8.86196 4.02294 9.933 3.68902 11.2994L0.106935 25.5653C-0.373251 27.5251 0.807898 29.5209 2.76452 30.0012C4.7239 30.4815 6.71916 29.3001 7.19935 27.3402L8.8248 20.8366L14.2172 28.5603C15.0672 29.7804 16.5823 30.3711 18.0229 30.0399C19.4634 29.7059 20.5728 28.5244 20.7936 27.0448C22.1983 18.3606 25.0435 9.48857 27.0388 7.53144C30.8058 10.4133 33.9463 20.5413 34.9812 27.0448C35.0529 27.4893 35.202 27.9309 35.4227 28.3008C37.2331 31.4422 41.8142 38.3543 47.1349 38.3543C47.5405 38.3543 47.9462 38.3184 48.3547 38.2438C53.2669 37.2446 54.4867 31.2959 55.0028 26.8958C55.4471 23.0533 56.4074 21.9822 56.6282 21.9077C57.9225 21.5737 62.2801 24.6433 65.6441 28.7811C66.3451 29.67 67.38 30.1503 68.4866 30.1503H133.323Z" fill="#65B7FF"/>
</svg>
