<svg width="23" height="23" viewBox="0 0 23 23" fill="none" xmlns="http://www.w3.org/2000/svg">
<g clip-path="url(#clip0_14_247)">
<path d="M19.5202 18.8362C18.7592 18.9431 18.1404 19.5039 17.9592 20.2506C17.7027 21.3078 16.6031 21.9253 15.5668 21.5944C14.8346 21.3605 14.0339 21.5972 13.5467 22.1914C12.8567 23.0326 11.5981 23.112 10.8081 22.3642C10.2498 21.8359 9.42597 21.7015 8.72893 22.0255C7.74245 22.484 6.57388 22.0095 6.1865 20.9929C5.91293 20.2747 5.22877 19.7963 4.46015 19.7857C3.37245 19.7707 2.52582 18.8363 2.61776 17.7522C2.68275 16.9866 2.27381 16.2586 1.58605 15.9158C0.612446 15.4304 0.255167 14.2209 0.808455 13.2841C1.19913 12.6226 1.14672 11.7893 0.675786 11.182C0.0092949 10.3223 0.212042 9.07751 1.11692 8.47361C1.75616 8.04701 2.07031 7.2736 1.90979 6.52221V6.52191C1.68204 5.45831 2.40483 4.42481 3.48206 4.27327C4.24333 4.16636 4.86176 3.60573 5.04324 2.85898C5.29974 1.80182 6.39943 1.18414 7.43563 1.51507C8.16771 1.74881 8.96836 1.51237 9.45592 0.918055C10.1458 0.0769676 11.4043 -0.00239435 12.1945 0.745555C12.7524 1.27384 13.5766 1.408 14.2736 1.08397C15.2601 0.625464 16.4284 1.09999 16.8158 2.11657C17.0893 2.83472 17.7738 3.31314 18.5421 3.32377C19.6298 3.33874 20.4767 4.27327 20.3847 5.35723C20.3195 6.123 20.7283 6.85089 21.4164 7.19379C22.3898 7.67925 22.7471 8.88854 22.194 9.82516C21.803 10.487 21.8556 11.3202 22.3265 11.9275C22.9931 12.7873 22.7904 14.0321 21.8855 14.6358C21.2463 15.0625 20.932 15.836 21.0928 16.5876C21.3201 17.6512 20.5976 18.6847 19.5202 18.8362Z" fill="#023562"/>
<path d="M16.0825 7.12695L9.27323 13.9362C9.1723 14.0368 9.00879 14.0368 8.90816 13.9362L6.92007 11.9481C6.57926 11.6075 6.02672 11.6075 5.68607 11.9481C5.34541 12.2888 5.34541 12.8412 5.68607 13.1818L7.85669 15.3524L8.49578 15.9917C8.82431 16.3202 9.35693 16.3202 9.68546 15.9917L10.3244 15.3524L17.3163 8.36081C17.6571 8.02015 17.6571 7.46761 17.3163 7.12695C16.9757 6.7863 16.4231 6.7863 16.0825 7.12695Z" fill="white"/>
</g>
<defs>
<clipPath id="clip0_14_247">
<rect width="23" height="23" fill="white"/>
</clipPath>
</defs>
</svg>
